<svg viewBox="0 0 40 40" xmlns="http://www.w3.org/2000/svg" fill="none">
  <!-- Background circle -->
  <circle cx="20" cy="20" r="20" fill="#2563EB" opacity="0.1"/>

  <!-- S shape -->
  <path d="M 12 10 Q 12 8 14 8 L 18 8 Q 20 8 20 10 Q 20 12 18 12 L 14 12 Q 12 12 12 14 L 12 16 Q 12 18 14 18 L 20 18 Q 22 18 22 20"
        stroke="#2563EB" stroke-width="1.5" stroke-linecap="round" stroke-linejoin="round" fill="none"/>

  <!-- T shape -->
  <path d="M 24 8 L 32 8 M 28 8 L 28 24"
        stroke="#2563EB" stroke-width="1.5" stroke-linecap="round" stroke-linejoin="round"/>

  <!-- Traffic elements -->
  <circle cx="14" cy="28" r="2" fill="#2563EB"/>
  <circle cx="20" cy="28" r="2" fill="#10B981"/>
  <circle cx="26" cy="28" r="2" fill="#F59E0B"/>
  <circle cx="32" cy="28" r="2" fill="#EF4444"/>

  <!-- Connecting line -->
  <line x1="12" y1="26" x2="34" y2="26" stroke="#2563EB" stroke-width="1" opacity="0.5"/>
</svg>
